<?xml version="1.0" standalone="no"?>
<!DOCTYPE svg PUBLIC "-//W3C//DTD SVG 1.1//EN" "http://www.w3.org/Graphics/SVG/1.1/DTD/svg11.dtd">
<svg version="1.1" xmlns="http://www.w3.org/2000/svg" viewBox="0 0 80.57347240447996 73.36149597935378" width="80.57347240447996" height="73.36149597935378"><!-- svg-source:excalidraw --><metadata></metadata><defs><style class="style-fonts">
      </style></defs><g stroke-linecap="round"><g transform="translate(11.003547975420929 61.86581752412019) rotate(0 29 -26)"><path d="M0.3 -0.73 C6.36 -4.53, 26.63 -13.54, 36.1 -22.07 C45.58 -30.59, 53.56 -46.85, 57.13 -51.87 M-1 1.5 C5.02 -2.25, 25.64 -12.43, 35.73 -21.09 C45.83 -29.75, 55.94 -45.46, 59.57 -50.48" stroke="#f5a300" stroke-width="4" fill="none"></path></g><g transform="translate(11.003547975420929 61.86581752412019) rotate(0 29 -26)"><path d="M54.58 -31.83 C54.68 -35.25, 55.53 -43.61, 59.57 -50.48 M54.58 -31.83 C55.68 -37.73, 56.89 -43.44, 59.57 -50.48" stroke="#f5a300" stroke-width="4" fill="none"></path></g><g transform="translate(11.003547975420929 61.86581752412019) rotate(0 29 -26)"><path d="M43.77 -39.4 C46.91 -40.74, 50.77 -46.99, 59.57 -50.48 M43.77 -39.4 C48.19 -42.93, 52.77 -46.28, 59.57 -50.48" stroke="#f5a300" stroke-width="4" fill="none"></path></g></g><mask></mask></svg>