<?xml version="1.0" standalone="no"?>
<!DOCTYPE svg PUBLIC "-//W3C//DTD SVG 1.1//EN" "http://www.w3.org/Graphics/SVG/1.1/DTD/svg11.dtd">
<svg version="1.1" xmlns="http://www.w3.org/2000/svg" viewBox="0 0 124.44656062911827 90.82313162200555" width="124.44656062911827" height="90.82313162200555"><!-- svg-source:excalidraw --><metadata></metadata><defs><style class="style-fonts">
      </style></defs><g stroke-linecap="round" transform="translate(9.723280314559133 10.41156581100276) rotate(352.09283729704157 52.5 35)"><path d="M63.54 1.55 C72.49 2.44, 83.11 6.39, 89.8 10.81 C96.48 15.22, 101.63 21.8, 103.67 28.04 C105.72 34.28, 105.34 42.24, 102.07 48.25 C98.81 54.25, 91.73 60.48, 84.1 64.07 C76.46 67.66, 65.75 69.47, 56.27 69.8 C46.8 70.12, 35.55 68.94, 27.23 66.02 C18.92 63.1, 11.01 58, 6.37 52.28 C1.74 46.57, -1.15 38.17, -0.59 31.75 C-0.02 25.33, 3.94 18.56, 9.78 13.76 C15.62 8.96, 25 4.95, 34.45 2.95 C43.89 0.95, 60.92 1.84, 66.45 1.75 C71.97 1.65, 67.89 2.04, 67.61 2.39 M30.83 3.87 C39.19 1.07, 52.9 -0.97, 62.58 -0.05 C72.26 0.88, 82.34 5.03, 88.91 9.42 C95.48 13.8, 99.58 20.22, 101.99 26.28 C104.41 32.34, 106.04 39.78, 103.38 45.76 C100.71 51.73, 93.53 58.35, 86.02 62.14 C78.5 65.93, 67.83 67.77, 58.28 68.51 C48.74 69.24, 37.38 69.13, 28.77 66.56 C20.16 63.98, 11.39 58.54, 6.62 53.08 C1.84 47.63, -0.2 40.37, 0.12 33.83 C0.45 27.29, 3.25 18.85, 8.58 13.85 C13.91 8.84, 28.27 5.5, 32.1 3.78 C35.94 2.05, 30.99 3.04, 31.57 3.51" stroke="#f5a300" stroke-width="4" fill="none"></path></g></svg>