<?xml version="1.0" standalone="no"?>
<!DOCTYPE svg PUBLIC "-//W3C//DTD SVG 1.1//EN" "http://www.w3.org/Graphics/SVG/1.1/DTD/svg11.dtd">
<svg version="1.1" xmlns="http://www.w3.org/2000/svg" viewBox="0 0 219.52196034193037 98.8163893148303" width="219.52196034193037" height="98.8163893148303"><!-- svg-source:excalidraw --><metadata></metadata><defs><style class="style-fonts">
      </style></defs><g stroke-linecap="round"><g transform="translate(10.278067343309544 67.26110622435809) rotate(0 90 -28)"><path d="M-0.28 0.61 C13.99 -6.01, 55.98 -30.22, 86.07 -39.54 C116.15 -48.85, 164.39 -52.64, 180.23 -55.29 M1.78 -0.11 C15.93 -6.6, 56.05 -28.76, 85.68 -38.28 C115.31 -47.81, 164.15 -54.03, 179.58 -57.26" stroke="#f5a300" stroke-width="4" fill="none"></path></g></g><mask></mask><g stroke-linecap="round"><g transform="translate(20.278067343309544 77.26110622435809) rotate(0 90 -28)"><path d="M-0.72 0.96 C13.54 -5.68, 55.74 -29.35, 86.02 -38.96 C116.29 -48.57, 165.45 -54.05, 180.94 -56.69 M1.1 0.42 C15.26 -6.09, 55.67 -28.04, 85.6 -37.4 C115.53 -46.76, 165.15 -52.52, 180.67 -55.74" stroke="#f5a300" stroke-width="4" fill="none"></path></g></g><mask></mask><g stroke-linecap="round"><g transform="translate(29.278067343309544 87.26110622435809) rotate(0 90 -28)"><path d="M0.94 -0.69 C14.77 -7, 54.09 -28.76, 83.98 -37.82 C113.86 -46.88, 164.24 -51.82, 180.24 -55.04 M-0.03 1.56 C14.07 -5.06, 56.21 -29.59, 86.15 -39.32 C116.09 -49.06, 163.92 -53.99, 179.61 -56.88" stroke="#f5a300" stroke-width="4" fill="none"></path></g></g><mask></mask></svg>